<?xml version="1.0" encoding="UTF-8"?>
<svg version="1.1" xmlns="http://www.w3.org/2000/svg" width="1024" height="1024">
<path d="M0 0 C337.92 0 675.84 0 1024 0 C1024 337.92 1024 675.84 1024 1024 C686.08 1024 348.16 1024 0 1024 C0 686.08 0 348.16 0 0 Z " fill="#89D6BD" transform="translate(0,0)"/>
<path d="M0 0 C4.24724485 3.44653476 6.99840614 7.59611419 9.6875 12.3125 C10.30625 13.34375 10.925 14.375 11.5625 15.4375 C14.40451234 22.73823828 13.75782073 32.43589462 11.125 39.6875 C8.7745079 44.70862292 5.57237546 49.35107527 1.6875 53.3125 C1.0275 53.3125 0.3675 53.3125 -0.3125 53.3125 C0.10636475 54.34656982 0.52522949 55.38063965 0.95678711 56.44604492 C2.51360331 60.29274442 4.06466119 64.14174401 5.61401367 67.99145508 C6.28465105 69.65549736 6.95683647 71.31891665 7.63061523 72.98168945 C8.60029828 75.37548265 9.56434351 77.77148063 10.52734375 80.16796875 C10.82841537 80.9077446 11.129487 81.64752045 11.43968201 82.40971375 C12.88720401 86.02754332 14.09843043 89.43529067 14.6875 93.3125 C15.3475 93.3125 16.0075 93.3125 16.6875 93.3125 C16.85185547 92.28660767 16.85185547 92.28660767 17.01953125 91.23999023 C17.80460593 87.79926273 19.030762 84.7364467 20.375 81.47265625 C20.91413797 80.14911928 21.45319807 78.82555059 21.9921875 77.50195312 C22.83950273 75.43643817 23.68883018 73.37177473 24.54003906 71.30786133 C25.36527117 69.30239431 26.18293341 67.2939611 27 65.28515625 C27.49113281 64.09156494 27.98226563 62.89797363 28.48828125 61.66821289 C29.62128791 58.49777792 30.36120221 55.65978161 30.6875 52.3125 C29.64686365 50.1537801 29.64686365 50.1537801 27.9375 48.375 C21.37785804 40.39993645 19.72886219 31.48775556 20.6875 21.3125 C23.21193388 11.10831246 29.51096851 2.93255258 38.453125 -2.46875 C39.19046875 -2.8709375 39.9278125 -3.273125 40.6875 -3.6875 C41.60789062 -4.19796875 41.60789062 -4.19796875 42.546875 -4.71875 C49.55337181 -7.95251776 58.15273779 -7.79004521 65.53125 -5.99609375 C74.89037997 -2.54419242 83.04547012 3.80887522 87.9453125 12.55859375 C91.98735222 21.39172251 91.91963087 30.78847402 88.79296875 39.93359375 C84.22495793 49.76369477 75.65494937 57.30496881 65.6875 61.3125 C59.10730823 63.33308414 52.00803356 62.97377729 45.6875 60.3125 C45.46191406 61.51003906 45.23632812 62.70757812 45.00390625 63.94140625 C43.52362977 70.5993899 41.03581883 76.88366513 38.625 83.25 C38.16544922 84.48041016 37.70589844 85.71082031 37.23242188 86.97851562 C33.8736092 95.94028159 33.8736092 95.94028159 32.6875 98.3125 C33.8319458 98.29401001 33.8319458 98.29401001 34.99951172 98.27514648 C43.64965354 98.19764559 52.19810127 98.60829161 60.8125 99.375 C61.8631514 99.46811462 61.8631514 99.46811462 62.93502808 99.56311035 C88.32870873 101.89218505 113.48361488 107.31107222 137.6875 115.3125 C138.59145508 115.60705078 139.49541016 115.90160156 140.42675781 116.20507812 C169.96958402 125.96485589 204.86787213 139.93389099 219.6875 169.3125 C226.15638892 184.44427164 224.99092024 202.01445 219.28125 217.18359375 C210.73953137 238.44924002 195.14485972 262.21335042 176 275.125 C171.19591724 276.84721835 166.72877782 277.1347816 161.6875 276.3125 C157.78414807 273.52439148 156.07223729 270.83459168 154.6875 266.3125 C154.40103372 263.10280388 154.4104777 259.90438846 154.4140625 256.68359375 C154.39373093 254.74022906 154.37287951 252.79686975 154.3515625 250.85351562 C154.32923926 247.82653278 154.31259794 244.79976567 154.30664062 241.77270508 C154.21173567 213.09954425 149.06576754 187.41310843 128.5 166.09765625 C105.20912891 143.03322418 74.64121181 135.99860564 42.88085938 136.06591797 C-4.65386215 136.3617944 -48.91952009 155.04595743 -84.3125 186.3125 C-84.83086426 186.7677002 -85.34922852 187.22290039 -85.88330078 187.69189453 C-107.71931897 206.95494411 -125.01321794 230.75054412 -139.09570312 256.12548828 C-140.1782217 258.07115469 -141.28086096 260.00340474 -142.390625 261.93359375 C-158.87183233 291.44567435 -169.52625396 325.09375635 -175.3125 358.3125 C-175.60766075 359.92325266 -175.90321863 361.53393262 -176.19921875 363.14453125 C-177.00289595 367.51882396 -177.65877917 371.91378547 -178.3125 376.3125 C-178.49554688 377.53598145 -178.67859375 378.75946289 -178.8671875 380.02001953 C-180.61931832 393.56365384 -180.65337352 407.09350278 -180.62817383 420.73144531 C-180.62356342 423.43799554 -180.63040007 426.1440941 -180.64868164 428.85058594 C-180.9830585 478.86887039 -171.19247539 527.99722403 -147.3125 572.3125 C-146.96896484 572.96476563 -146.62542969 573.61703125 -146.27148438 574.2890625 C-140.80119984 584.64960139 -134.4842151 594.05716664 -127.3125 603.3125 C-126.59964844 604.23933594 -125.88679687 605.16617188 -125.15234375 606.12109375 C-117.16950888 616.6932941 -117.16950888 616.6932941 -107.3125 625.3125 C-107.3125 625.9725 -107.3125 626.6325 -107.3125 627.3125 C-106.72210938 627.580625 -106.13171875 627.84875 -105.5234375 628.125 C-103.29253997 629.32322058 -101.77552942 630.58258995 -99.9375 632.3125 C-70.71130145 658.30332602 -29.24560556 674.43145997 9.84765625 674.48046875 C10.79579697 674.48379715 11.74393768 674.48712555 12.72080994 674.49055481 C14.71840942 674.49558959 16.71601722 674.49796421 18.71362305 674.49780273 C21.71743214 674.49997643 24.72086564 674.51813421 27.72460938 674.53710938 C38.8877992 674.57005837 49.65831135 674.10752862 60.6875 672.3125 C61.5122583 672.18238525 62.3370166 672.05227051 63.18676758 671.91821289 C112.84772735 663.35958486 160.41658095 634.50630258 191.5234375 594.9921875 C194.11428883 591.78402142 196.84269049 588.72964839 199.625 585.6875 C200.09848877 585.16575195 200.57197754 584.64400391 201.05981445 584.10644531 C204.34969822 580.53358009 205.54732917 579.3872653 210.5 579.0625 C214.35625189 579.12537367 216.64865323 579.79459839 219.6875 582.3125 C221.91236346 585.05649827 222.73592619 586.45572893 222.53515625 590.0078125 C221.46226505 594.1906049 219.58567614 597.27764751 217.25 600.875 C216.57674683 601.92772095 216.57674683 601.92772095 215.88989258 603.00170898 C202.59097504 623.50178711 185.8585856 642.19634281 166.6875 657.3125 C165.6406128 658.17157796 164.59508653 659.03231652 163.55078125 659.89453125 C126.59799716 690.11869725 79.71417444 706.72217454 32.6875 712.3125 C31.96534805 712.39838379 31.24319611 712.48426758 30.49916077 712.57275391 C24.13333427 713.27561994 17.8351542 713.48801952 11.43359375 713.515625 C10.37503677 713.52132507 9.3164798 713.52702515 8.22584534 713.53289795 C5.9895221 713.54229733 3.75318534 713.54886165 1.5168457 713.55273438 C-1.81390494 713.5623241 -5.14400609 713.59334826 -8.47460938 713.625 C-69.44144037 713.92622203 -128.96745361 693.93417427 -176.3125 655.3125 C-177.146604 654.6328418 -177.146604 654.6328418 -177.99755859 653.93945312 C-191.02288948 643.23732158 -202.94093202 631.62635677 -213.3125 618.3125 C-214.19107473 617.22263941 -215.07136862 616.13416308 -215.953125 615.046875 C-226.98357473 601.36647903 -236.16392297 586.87418959 -244.3125 571.3125 C-244.75207031 570.48347168 -245.19164062 569.65444336 -245.64453125 568.80029297 C-266.57230949 528.88221452 -277.41197415 482.27312914 -278.3125 437.3125 C-278.33828125 436.42546387 -278.3640625 435.53842773 -278.390625 434.62451172 C-279.6136717 389.07366635 -273.13662232 341.82605082 -256.3125 299.3125 C-255.94398926 298.37535156 -255.57547852 297.43820312 -255.19580078 296.47265625 C-235.35550407 246.46958154 -204.89937733 198.97533672 -162.3125 165.3125 C-161.20369706 164.39307016 -160.09702842 163.47106207 -158.9921875 162.546875 C-117.78948098 128.36233639 -55.70712875 98.93334476 -1.3125 99.3125 C-1.70630859 98.23242676 -2.10011719 97.15235352 -2.50585938 96.03955078 C-3.96269527 92.04136941 -5.41533659 88.04167501 -6.86669922 84.04150391 C-7.49608423 82.30866433 -8.12661416 80.57624016 -8.75830078 78.84423828 C-9.6647821 76.35817413 -10.56716866 73.87065716 -11.46875 71.3828125 C-11.75310913 70.60567902 -12.03746826 69.82854553 -12.33044434 69.02786255 C-14.3125 63.54024341 -14.3125 63.54024341 -14.3125 61.3125 C-14.9725 61.6425 -15.6325 61.9725 -16.3125 62.3125 C-27.2634036 63.35462967 -34.92833213 60.77541348 -43.46484375 54.00390625 C-51.46137143 46.68361769 -56.04296981 36.88317098 -56.625 26.125 C-56.49447778 17.39451387 -52.18110274 9.58448785 -46.3125 3.3125 C-32.80365577 -9.16876981 -15.50032584 -10.51912472 0 0 Z " fill="#FEFEFE" transform="translate(509.3125,143.6875)"/>
<path d="M0 0 C61.71 0 123.42 0 187 0 C187 0.33 187 0.66 187 1 C186.35264893 1.06469482 185.70529785 1.12938965 185.03833008 1.19604492 C133.23690238 6.51732728 84.72105354 27.31810492 50.6875 68.0625 C20.58745271 105.62279998 4.39499701 147.81131113 1 196 C0.67 196 0.34 196 0 196 C0 131.32 0 66.64 0 0 Z " fill="#FEFEFE" transform="translate(0,0)"/>
<path d="M0 0 C60.72 0 121.44 0 184 0 C184 63.36 184 126.72 184 192 C183.67 192 183.34 192 183 192 C182.92483154 191.35675781 182.84966309 190.71351563 182.7722168 190.05078125 C176.85924193 139.92234127 160.89531537 95.70308619 125 59 C124.21753906 58.15566406 123.43507813 57.31132813 122.62890625 56.44140625 C110.94395994 44.12590635 96.61173981 34.50052919 82 26 C81.35691895 25.6189209 80.71383789 25.2378418 80.05126953 24.84521484 C55.52103664 10.45569807 28.04574873 4.05539051 0 1 C0 0.67 0 0.34 0 0 Z " fill="#FEFEFE" transform="translate(840,0)"/>
<path d="M0 0 C0.33 0 0.66 0 1 0 C1.08636719 1.15371094 1.17273438 2.30742188 1.26171875 3.49609375 C5.25195379 51.72064724 22.87148161 97.26867903 56.53613281 132.46875 C57.52743586 133.50568341 58.51363333 134.54751769 59.49511719 135.59375 C90.31490623 168.36316148 133.53320226 187.77036717 178 192 C178 192.33 178 192.66 178 193 C119.26 193 60.52 193 0 193 C0 129.31 0 65.62 0 0 Z " fill="#FEFEFE" transform="translate(0,831)"/>
<path d="M0 0 C0.33 0 0.66 0 1 0 C1 63.03 1 126.06 1 191 C-57.08 191 -115.16 191 -175 191 C-175 190.67 -175 190.34 -175 190 C-173.6903125 189.86464844 -172.380625 189.72929688 -171.03125 189.58984375 C-133.87566473 185.36080874 -99.25973591 170.53222473 -71 146 C-69.73929688 144.90558594 -69.73929688 144.90558594 -68.453125 143.7890625 C-65.93477162 141.56008513 -63.45858579 139.29468008 -61 137 C-60.18789063 136.24203125 -59.37578125 135.4840625 -58.5390625 134.703125 C-22.73837489 100.14473254 -2.84215986 49.10076177 0 0 Z " fill="#FEFEFE" transform="translate(1023,833)"/>
<path d="M0 0 C0.66 0.33 1.32 0.66 2 1 C-6.58 9.58 -15.16 18.16 -24 27 C-24 23.39768908 -23.43128853 23.0209684 -21.03515625 20.48828125 C-20.40359619 19.81603516 -19.77203613 19.14378906 -19.12133789 18.45117188 C-18.44192139 17.74541016 -17.76250488 17.03964844 -17.0625 16.3125 C-16.3811499 15.59513672 -15.6997998 14.87777344 -14.99780273 14.13867188 C-10.21994145 9.15189593 -5.33436292 4.3947055 0 0 Z " fill="#7FD2B6" transform="translate(72,46)"/>
<path d="M0 0 C0.66 0.33 1.32 0.66 2 1 C-4.93 7.93 -11.86 14.86 -19 22 C-19.66 21.67 -20.32 21.34 -21 21 C-14.47429312 13.40315437 -7.47007318 6.64849153 0 0 Z " fill="#7FD3B7" transform="translate(429,325)"/>
<path d="M0 0 C0 6.53710525 -8.08624689 12.13636779 -12.4375 16.5 C-13.95585169 18.00251195 -15.47580995 19.50341097 -17 21 C-17.66 20.67 -18.32 20.34 -19 20 C-18.40312378 19.410979 -18.40312378 19.410979 -17.79418945 18.81005859 C-15.96423697 17.00110339 -14.13835686 15.18808863 -12.3125 13.375 C-11.68666016 12.75753906 -11.06082031 12.14007812 -10.41601562 11.50390625 C-6.71588744 7.82315047 -3.27211954 4.06668776 0 0 Z " fill="#78CFB2" transform="translate(706,771)"/>
<path d="M0 0 C0.33 0.99 0.66 1.98 1 3 C0.67 3.66 0.34 4.32 0 5 C3.16245541 6.0541518 5.86948218 6.31275672 9.1875 6.5625 C10.81751953 6.68818359 10.81751953 6.68818359 12.48046875 6.81640625 C13.72763672 6.90728516 13.72763672 6.90728516 15 7 C15 7.33 15 7.66 15 8 C9.06 8 3.12 8 -3 8 C-1 1 -1 1 0 0 Z " fill="#76CFB2" transform="translate(545,234)"/>
<path d="M0 0 C0.66 0.99 1.32 1.98 2 3 C-0.97 5.475 -0.97 5.475 -4 8 C-4.66 7.67 -5.32 7.34 -6 7 C-4.02 4.69 -2.04 2.38 0 0 Z " fill="#7CD1B5" transform="translate(517,189)"/>
</svg>
